<svg xmlns="http://www.w3.org/2000/svg" width="44" height="64" fill="none" viewBox="0 0 44 64"><path fill="#000" d="M21.9 41a.9.9 0 0 1-.8-.4c-5.4-6.1-6.7-7.5-7-7.9a5.4 5.4 0 0 1 4.4-8.7c1.3 0 2.5.5 3.5 1.3a5.46 5.46 0 0 1 9 4.1c0 1.3-.5 2.5-1.3 3.4l-7 7.9c-.2.2-.4.3-.8.3m-6-9.5c.3.4 3.5 4 6.1 6.9l6.2-7c.5-.5.7-1.2.7-2 0-1.8-1.5-3.3-3.3-3.3-1 0-2 .5-2.7 1.3-.3.3-.6.4-.9.4s-.6-.2-.8-.4c-.7-.8-1.7-1.3-2.7-1.3-1.8 0-3.3 1.5-3.3 3.3-.1.9.3 1.6.7 2.1q-.15 0 0 0"/><rect width="20" height="20" x="20" y="11" fill="#7db54f" rx="10"/><path fill="#fff" d="M25.13 24.26h1.4v-4.84l.1-.59-.4.47-1.1.79-.38-.51 2.2-1.7h.36v6.38h1.37V25h-3.55zm8.83-4.67q0 .53-.2 1.09-.2.55-.51 1.11-.3.56-.7 1.1-.39.53-.78 1.01l-.49.43v.04l.64-.11h2.18V25h-3.98v-.29a33 33 0 0 0 1.17-1.32 15 15 0 0 0 1.25-1.83q.27-.48.43-.95t.16-.89q0-.5-.28-.81-.28-.33-.85-.33-.38 0-.74.16-.36.15-.62.35l-.33-.57q.35-.3.83-.47t1.03-.17q.43 0 .76.13a1.5 1.5 0 0 1 .91.9q.12.3.12.68"/></svg>